# xmcd
#
# Track frame offsets:
# 150
# 11632
# 23025
# 34270
# 46090
# 57262
# 67242
# 79407
# 87579
# 97547
# 110047
# 121629
#
# Disc length: 1758 seconds
#
#
# Revision: 0
# Processed by: cddbd v1.5.1PL0 Copyright (c) Steve Scherf et al.
# Submitted via: FreeRIP 2.91 
#
DISCID=9506dc0c
DTITLE=CHITÃOZINHO E XORORÓ - CAMINHOS DE MINHA INFÂNCIA
DYEAR=2004
DGENRE=POP
TTITLE0=POEMA SERTANEJO
TTITLE1=CARROSSEL DA VIDA
TTITLE2=ESTA SAUDADE
TTITLE3=SAUDADE DE GOIÁS
TTITLE4=VIVEDO AO SEU REDOR
TTITLE5=PEQUENO ESTUDADNTE
TTITLE6=CAMINHOS DE MINHA INFÂNCIA
TTITLE7=NÃO QUEREM NOSSO AMOR
TTITLE8=DARIA TUDO PRA VOCE FICAR COMIGO
TTITLE9=VENHA ME DAR SUA MÃO
TTITLE10=BAILE DO ADEUS
TTITLE11=PALAVRAS, AMOR E FÉ
EXTD=
EXTT0=
EXTT1=
EXTT2=
EXTT3=
EXTT4=
EXTT5=
EXTT6=
EXTT7=
EXTT8=
EXTT9=
EXTT10=
EXTT11=
PLAYORDER=
